<?xml version="1.0" encoding="UTF-8" standalone="no"?>
<!-- Created with Inkscape (http://www.inkscape.org/) -->

<svg
   width="10.583334mm"
   height="10.583333mm"
   viewBox="0 0 10.583334 10.583333"
   version="1.1"
   id="svg185"
   xml:space="preserve"
   xmlns="http://www.w3.org/2000/svg"
   xmlns:svg="http://www.w3.org/2000/svg"><defs
     id="defs182"><clipPath
       clipPathUnits="userSpaceOnUse"
       id="clipPath18176"><path
         d="M -174.83937,810.58112 H 1455.0806 V -448.90246 H -174.83937 Z"
         id="path18178"
         style="stroke-width:1.48174" /></clipPath></defs><g
     id="layer1"
     transform="translate(-328.63005,-19.691634)"><g
       id="g2082"
       clip-path="url(#clipPath18176)"
       transform="matrix(0.32479157,0,0,-0.32479954,229.5687,230.25274)"><g
         id="g2088"
         transform="translate(316.5707,648.2802)"><path
           d="M 0,0 3.561,-5.43 3.229,-10.917 8.365,-13.324 9.407,-19 c 2.519,-0.022 7.364,-0.067 11.607,-0.103 V 0 Z"
           style="fill:#de2d26;fill-opacity:1;fill-rule:nonzero;stroke:none"
           id="path2090" /></g><g
         id="g2092"
         transform="translate(311.9726,634.601)"><path
           d="m 0,0 c -0.605,-2.496 -1.222,-5.308 -0.935,-5.308 0.315,0 6.122,-3.255 10.602,-5.797 0,0 3.265,5.793 4.338,5.785 L 12.963,0.355 7.827,2.763 7.818,2.587 Z"
           style="fill:#fb6a4a;fill-opacity:1;fill-rule:nonzero;stroke:none"
           id="path2094" /></g><g
         id="g2096"
         transform="translate(321.6401,623.496)"><path
           d="m 0,0 c -4.481,2.542 -10.287,5.797 -10.602,5.797 -0.287,0 0.329,2.812 0.935,5.308 L -16.64,8.803 V -7.8 h 14.049 l 0.57,3.305 z"
           style="fill:#fcae91;fill-opacity:1;fill-rule:nonzero;stroke:none"
           id="path2098" /></g><g
         id="g2100"
         transform="translate(316.5707,648.2802)"><path
           d="m 0,0 h -11.571 v -15.981 l 6.973,2.302 7.818,2.587 0.009,0.175 0.332,5.487 z"
           style="fill:#fee5d9;fill-opacity:1;fill-rule:nonzero;stroke:none"
           id="path2102" /></g><g
         id="g2104"
         transform="translate(325.978,629.2806)"><path
           d="m 0,0 c -1.074,0.008 -4.338,-5.785 -4.338,-5.785 l -2.021,-4.495 -0.57,-3.304 h 18.535 v 13.48 C 7.364,-0.068 2.519,-0.023 0,0"
           style="fill:#a50f15;fill-opacity:1;fill-rule:nonzero;stroke:none"
           id="path2106" /></g></g></g></svg>
