<?xml version="1.0" encoding="UTF-8" standalone="no"?>
<!-- Created with Inkscape (http://www.inkscape.org/) -->

<svg
   width="10.583334mm"
   height="10.583325mm"
   viewBox="0 0 10.583334 10.583325"
   version="1.1"
   id="svg185"
   xml:space="preserve"
   xmlns="http://www.w3.org/2000/svg"
   xmlns:svg="http://www.w3.org/2000/svg"><defs
     id="defs182"><clipPath
       clipPathUnits="userSpaceOnUse"
       id="clipPath18216"><path
         d="M -174.83937,810.58112 H 1455.0806 V -448.90246 H -174.83937 Z"
         id="path18218"
         style="stroke-width:1.48174" /></clipPath></defs><g
     id="layer1"
     transform="translate(-389.245,-19.691645)"><g
       id="g1486"
       clip-path="url(#clipPath18216)"
       transform="matrix(0.32319464,0,0,-0.32320228,290.6967,197.2966)"><g
         id="g1492"
         transform="translate(316.5688,549.4359)"><path
           d="m 0,0 3.564,-5.428 -0.334,-5.49 5.139,-2.405 1.037,-5.676 c 2.518,-0.022 7.368,-0.067 11.61,-0.104 V 0 Z"
           style="fill:#cccccc;fill-opacity:1;fill-rule:nonzero;stroke:none"
           id="path1494" /></g><g
         id="g1496"
         transform="translate(316.5688,549.4359)"><path
           d="m 0,0 3.564,-5.428 -0.334,-5.49 5.139,-2.405 1.037,-5.676 c 2.518,-0.022 7.368,-0.067 11.61,-0.104 V 0 Z"
           style="fill:none;stroke:#ffffff;stroke-width:0.161;stroke-linecap:butt;stroke-linejoin:miter;stroke-miterlimit:10;stroke-dasharray:none;stroke-opacity:1"
           id="path1498" /></g><g
         id="g1500"
         transform="translate(311.9706,535.7616)"><path
           d="m 0,0 c -0.604,-2.5 -1.217,-5.311 -0.934,-5.311 0.316,0 6.122,-3.257 10.602,-5.798 0,0 3.264,5.794 4.336,5.784 L 12.963,0.351 7.829,2.756 7.819,2.585 Z"
           style="fill:#cccccc;fill-opacity:1;fill-rule:nonzero;stroke:none"
           id="path1502" /></g><g
         id="g1504"
         transform="translate(311.9706,535.7616)"><path
           d="m 0,0 c -0.604,-2.5 -1.217,-5.311 -0.933,-5.311 0.315,0 6.121,-3.257 10.601,-5.798 0,0 3.264,5.794 4.336,5.784 L 12.963,0.351 7.829,2.756 7.819,2.585 Z"
           style="fill:none;stroke:#ffffff;stroke-width:0.161;stroke-linecap:butt;stroke-linejoin:miter;stroke-miterlimit:10;stroke-dasharray:none;stroke-opacity:1"
           id="path1506" /></g><g
         id="g1508"
         transform="translate(321.6391,524.6527)"><path
           d="m 0,0 c -4.48,2.541 -10.287,5.798 -10.602,5.798 -0.284,0 0.33,2.81 0.934,5.311 L -16.639,8.802 V -7.801 h 14.05 l 0.565,3.303 z"
           style="fill:#cccccc;fill-opacity:1;fill-rule:nonzero;stroke:none"
           id="path1510" /></g><g
         id="g1512"
         transform="translate(321.6391,524.6527)"><path
           d="m 0,0 c -4.48,2.541 -10.287,5.798 -10.602,5.798 -0.284,0 0.33,2.81 0.934,5.311 L -16.639,8.802 V -7.801 h 14.05 l 0.565,3.303 z"
           style="fill:none;stroke:#ffffff;stroke-width:0.161;stroke-linecap:butt;stroke-linejoin:miter;stroke-miterlimit:10;stroke-dasharray:none;stroke-opacity:1"
           id="path1514" /></g><g
         id="g1516"
         transform="translate(316.5688,549.4359)"><path
           d="m 0,0 h -11.569 v -15.981 l 6.971,2.307 7.819,2.585 0.009,0.171 0.334,5.49 z"
           style="fill:#cccccc;fill-opacity:1;fill-rule:nonzero;stroke:none"
           id="path1518" /></g><g
         id="g1520"
         transform="translate(316.5688,549.4359)"><path
           d="m 0,0 h -11.569 v -15.981 l 6.971,2.307 7.819,2.585 0.009,0.171 0.334,5.49 z"
           style="fill:none;stroke:#ffffff;stroke-width:0.161;stroke-linecap:butt;stroke-linejoin:miter;stroke-miterlimit:10;stroke-dasharray:none;stroke-opacity:1"
           id="path1522" /></g><g
         id="g1524"
         transform="translate(325.975,530.4374)"><path
           d="m 0,0 c -1.073,0.009 -4.335,-5.784 -4.335,-5.784 l -2.021,-4.499 -0.57,-3.302 H 11.609 V -0.099 C 7.368,-0.068 2.518,-0.023 0,0"
           style="fill:#cccccc;fill-opacity:1;fill-rule:nonzero;stroke:none"
           id="path1526" /></g><g
         id="g1528"
         transform="translate(325.975,530.4369)"><path
           d="m 0,0 c -1.073,0.009 -4.336,-5.784 -4.336,-5.784 l -2.021,-4.498 -0.568,-3.303 H 11.609 V -0.099 C 7.368,-0.067 2.518,-0.022 0,0 Z"
           style="fill:none;stroke:#ffffff;stroke-width:0.161;stroke-linecap:butt;stroke-linejoin:miter;stroke-miterlimit:10;stroke-dasharray:none;stroke-opacity:1"
           id="path1530" /></g><g
         id="g1532"
         transform="translate(327.8163,531.452)"><path
           d="m 0,0 c 0,-4.35 -3.52,-7.868 -7.865,-7.868 -4.343,0 -7.867,3.518 -7.867,7.868 0,4.345 3.524,7.865 7.867,7.865 C -3.52,7.865 0,4.345 0,0"
           style="fill:#de2d26;fill-opacity:1;fill-rule:nonzero;stroke:#454541;stroke-width:0.082;stroke-linecap:butt;stroke-linejoin:miter;stroke-miterlimit:4;stroke-dasharray:none;stroke-opacity:1"
           id="path1534" /></g><g
         id="g1536"
         transform="translate(312.7016,522.8749)"><path
           d="m 0,0 c 0,-0.826 -0.667,-1.498 -1.493,-1.498 -0.831,0 -1.498,0.672 -1.498,1.498 0,0.826 0.667,1.498 1.498,1.498 C -0.667,1.498 0,0.826 0,0"
           style="fill:#33883b;fill-opacity:1;fill-rule:nonzero;stroke:none"
           id="path1538" /></g><g
         id="g1540"
         transform="translate(312.7016,522.8749)"><path
           d="m 0,0 c 0,-0.826 -0.667,-1.498 -1.493,-1.498 -0.831,0 -1.498,0.672 -1.498,1.498 0,0.826 0.667,1.498 1.498,1.498 C -0.667,1.498 0,0.826 0,0"
           style="fill:#de2d26;fill-opacity:1;fill-rule:nonzero;stroke:none"
           id="path1542" /></g><g
         id="g1544"
         transform="translate(316.1171,543.3998)"><path
           d="m 0,0 c 0,-2.739 -2.22,-4.963 -4.958,-4.963 -2.744,0 -4.964,2.224 -4.964,4.963 0,2.738 2.22,4.958 4.964,4.958 C -2.22,4.958 0,2.738 0,0"
           style="fill:#de2d26;fill-opacity:1;fill-rule:nonzero;stroke:#454541;stroke-width:0.082;stroke-linecap:butt;stroke-linejoin:miter;stroke-miterlimit:4;stroke-dasharray:none;stroke-opacity:1"
           id="path1546" /></g><g
         id="g1548"
         transform="translate(333.0092,540.5028)"><path
           d="m 0,0 c 0,-1.759 -1.425,-3.181 -3.181,-3.181 -1.759,0 -3.184,1.422 -3.184,3.181 0,1.754 1.425,3.181 3.184,3.181 C -1.425,3.181 0,1.754 0,0"
           style="fill:#de2d26;fill-opacity:1;fill-rule:nonzero;stroke:#454541;stroke-width:0.082;stroke-linecap:butt;stroke-linejoin:miter;stroke-miterlimit:4;stroke-dasharray:none;stroke-opacity:1"
           id="path1550" /></g><g
         id="g1552"
         transform="translate(331.3808,522.8578)"><path
           d="m 0,0 c 0,-0.88 -0.713,-1.593 -1.588,-1.593 -0.88,0 -1.593,0.713 -1.593,1.593 0,0.879 0.713,1.593 1.593,1.593 C -0.713,1.593 0,0.879 0,0"
           style="fill:#33883b;fill-opacity:1;fill-rule:nonzero;stroke:none"
           id="path1554" /></g><g
         id="g1556"
         transform="translate(331.3808,522.8578)"><path
           d="m 0,0 c 0,-0.88 -0.713,-1.593 -1.588,-1.593 -0.88,0 -1.593,0.713 -1.593,1.593 0,0.879 0.713,1.593 1.593,1.593 C -0.713,1.593 0,0.879 0,0"
           style="fill:#de2d26;fill-opacity:1;fill-rule:nonzero;stroke:none"
           id="path1558" /></g></g></g></svg>
