<?xml version="1.0" encoding="UTF-8" standalone="no"?>
<!-- Created with Inkscape (http://www.inkscape.org/) -->

<svg
   width="10.583301mm"
   height="10.583331mm"
   viewBox="0 0 10.583301 10.583331"
   version="1.1"
   id="svg185"
   xml:space="preserve"
   xmlns="http://www.w3.org/2000/svg"
   xmlns:svg="http://www.w3.org/2000/svg"><defs
     id="defs182"><clipPath
       clipPathUnits="userSpaceOnUse"
       id="clipPath18058"><path
         d="M -174.83937,810.58112 H 1455.0806 V -448.90246 H -174.83937 Z"
         id="path18060"
         style="stroke-width:1.48174" /></clipPath></defs><g
     id="layer1"
     transform="translate(-476.02836,-19.691637)"><g
       id="g1674"
       clip-path="url(#clipPath18058)"
       transform="matrix(0.32319445,0,0,-0.32321636,377.4801,165.33545)"><g
         id="g1680"
         transform="translate(316.5688,450.5273)"><path
           d="m 0,0 3.563,-5.427 -0.334,-5.491 5.14,-2.405 1.037,-5.676 c 2.518,-0.022 7.368,-0.067 11.61,-0.104 V 0 Z"
           style="fill:#cccccc;fill-opacity:1;fill-rule:nonzero;stroke:none"
           id="path1682" /></g><g
         id="g1684"
         transform="translate(316.5688,450.5273)"><path
           d="m 0,0 3.563,-5.427 -0.334,-5.491 5.14,-2.405 1.037,-5.676 c 2.518,-0.022 7.368,-0.067 11.61,-0.104 V 0 Z"
           style="fill:none;stroke:#ffffff;stroke-width:0.161;stroke-linecap:butt;stroke-linejoin:miter;stroke-miterlimit:10;stroke-dasharray:none;stroke-opacity:1"
           id="path1686" /></g><g
         id="g1688"
         transform="translate(311.9706,436.8524)"><path
           d="m 0,0 c -0.604,-2.5 -1.219,-5.311 -0.935,-5.311 0.317,0 6.123,-3.257 10.603,-5.797 0,0 3.262,5.793 4.336,5.784 L 12.963,0.352 7.828,2.757 7.819,2.584 Z"
           style="fill:#cccccc;fill-opacity:1;fill-rule:nonzero;stroke:none"
           id="path1690" /></g><g
         id="g1692"
         transform="translate(311.9706,436.8524)"><path
           d="m 0,0 c -0.604,-2.5 -1.219,-5.311 -0.935,-5.311 0.317,0 6.123,-3.257 10.603,-5.797 0,0 3.262,5.793 4.336,5.784 L 12.963,0.352 7.828,2.757 7.819,2.584 Z"
           style="fill:none;stroke:#ffffff;stroke-width:0.161;stroke-linecap:butt;stroke-linejoin:miter;stroke-miterlimit:10;stroke-dasharray:none;stroke-opacity:1"
           id="path1694" /></g><g
         id="g1696"
         transform="translate(321.6391,425.7445)"><path
           d="m 0,0 c -4.48,2.54 -10.287,5.797 -10.603,5.797 -0.284,0 0.331,2.811 0.935,5.311 L -16.639,8.802 V -7.8 h 14.05 l 0.563,3.301 z"
           style="fill:#cccccc;fill-opacity:1;fill-rule:nonzero;stroke:none"
           id="path1698" /></g><g
         id="g1700"
         transform="translate(321.6391,425.7445)"><path
           d="m 0,0 c -4.48,2.54 -10.287,5.797 -10.603,5.797 -0.284,0 0.331,2.811 0.935,5.311 L -16.639,8.802 V -7.8 h 14.05 l 0.563,3.301 z"
           style="fill:none;stroke:#ffffff;stroke-width:0.161;stroke-linecap:butt;stroke-linejoin:miter;stroke-miterlimit:10;stroke-dasharray:none;stroke-opacity:1"
           id="path1702" /></g><g
         id="g1704"
         transform="translate(316.5688,450.5273)"><path
           d="m 0,0 h -11.569 v -15.98 l 6.971,2.305 7.819,2.585 0.008,0.172 0.334,5.491 z"
           style="fill:#cccccc;fill-opacity:1;fill-rule:nonzero;stroke:none"
           id="path1706" /></g><g
         id="g1708"
         transform="translate(316.5688,450.5273)"><path
           d="m 0,0 h -11.569 v -15.98 l 6.971,2.305 7.819,2.585 0.008,0.172 0.334,5.491 z"
           style="fill:none;stroke:#ffffff;stroke-width:0.161;stroke-linecap:butt;stroke-linejoin:miter;stroke-miterlimit:10;stroke-dasharray:none;stroke-opacity:1"
           id="path1710" /></g><g
         id="g1712"
         transform="translate(325.9745,431.5282)"><path
           d="m 0,0 c -1.073,0.009 -4.334,-5.784 -4.334,-5.784 l -2.022,-4.498 -0.569,-3.303 H 11.609 V -0.1 C 7.368,-0.067 2.518,-0.022 0,0"
           style="fill:#cccccc;fill-opacity:1;fill-rule:nonzero;stroke:none"
           id="path1714" /></g><g
         id="g1716"
         transform="translate(325.975,431.5287)"><path
           d="m 0,0 c -1.074,0.008 -4.336,-5.784 -4.336,-5.784 l -2.021,-4.499 -0.568,-3.301 H 11.609 V -0.099 C 7.368,-0.068 2.518,-0.023 0,0 Z"
           style="fill:none;stroke:#ffffff;stroke-width:0.161;stroke-linecap:butt;stroke-linejoin:miter;stroke-miterlimit:10;stroke-dasharray:none;stroke-opacity:1"
           id="path1718" /></g><g
         id="g1720"
         transform="translate(315.1537,433.3832)"><path
           d="M 0,0 C 0,2.061 1.682,3.743 3.742,3.743 5.803,3.743 7.484,2.061 7.484,0 7.484,-2.06 5.803,-3.742 3.742,-3.742 1.682,-3.742 0,-2.06 0,0"
           style="fill:#de2d26;fill-opacity:1;fill-rule:nonzero;stroke:none"
           id="path1722" /></g><path
         d="m 326.023,438.892 h 7.484 v 7.484 h -7.484 z"
         style="fill:#de2d26;fill-opacity:1;fill-rule:nonzero;stroke:none"
         id="path1724" /><g
         id="g1726"
         transform="translate(311.3437,441.1151)"><path
           d="M 0,0 3.749,3.736 0,7.484 -3.736,3.736 Z"
           style="fill:#de2d26;fill-opacity:1;fill-rule:nonzero;stroke:none"
           id="path1728" /></g><g
         id="g1730"
         transform="translate(330.3969,419.498)"><path
           d="M 0,0 3.749,3.736 0,7.484 -3.736,3.736 Z"
           style="fill:#de2d26;fill-opacity:1;fill-rule:nonzero;stroke:none"
           id="path1732" /></g><path
         d="m 307.765,420.993 h 7.485 v 7.485 h -7.485 z"
         style="fill:#de2d26;fill-opacity:1;fill-rule:nonzero;stroke:none"
         id="path1734" /></g></g></svg>
