<?xml version="1.0" encoding="UTF-8" standalone="no"?>
<!-- Created with Inkscape (http://www.inkscape.org/) -->

<svg
   width="10.583301mm"
   height="10.583331mm"
   viewBox="0 0 10.583301 10.583331"
   version="1.1"
   id="svg185"
   xml:space="preserve"
   xmlns="http://www.w3.org/2000/svg"
   xmlns:svg="http://www.w3.org/2000/svg"><defs
     id="defs182"><clipPath
       clipPathUnits="userSpaceOnUse"
       id="clipPath18252"><path
         d="M -174.83937,810.58112 H 1455.0806 V -448.90246 H -174.83937 Z"
         id="path18254"
         style="stroke-width:1.48174" /></clipPath></defs><g
     id="layer1"
     transform="translate(-441.89709,-19.691636)"><g
       id="g1584"
       clip-path="url(#clipPath18252)"
       transform="matrix(0.32319448,0,0,-0.32320254,343.34884,181.39778)"><g
         id="g1590"
         transform="translate(316.5688,500.244)"><path
           d="m 0,0 3.564,-5.427 -0.334,-5.491 5.139,-2.405 1.037,-5.676 c 2.518,-0.022 7.368,-0.066 11.61,-0.104 V 0 Z"
           style="fill:#cccccc;fill-opacity:1;fill-rule:nonzero;stroke:none"
           id="path1592" /></g><g
         id="g1594"
         transform="translate(316.5688,500.244)"><path
           d="m 0,0 3.564,-5.427 -0.334,-5.491 5.139,-2.405 1.037,-5.676 c 2.518,-0.022 7.368,-0.066 11.61,-0.104 V 0 Z"
           style="fill:none;stroke:#ffffff;stroke-width:0.161;stroke-linecap:butt;stroke-linejoin:miter;stroke-miterlimit:10;stroke-dasharray:none;stroke-opacity:1"
           id="path1596" /></g><g
         id="g1598"
         transform="translate(311.9706,486.5702)"><path
           d="m 0,0 c -0.604,-2.501 -1.217,-5.311 -0.934,-5.311 0.316,0 6.122,-3.257 10.602,-5.798 0,0 3.264,5.794 4.336,5.784 L 12.963,0.351 7.829,2.756 7.819,2.585 Z"
           style="fill:#cccccc;fill-opacity:1;fill-rule:nonzero;stroke:none"
           id="path1600" /></g><g
         id="g1602"
         transform="translate(311.9706,486.5702)"><path
           d="m 0,0 c -0.604,-2.501 -1.217,-5.311 -0.933,-5.311 0.315,0 6.121,-3.257 10.601,-5.798 0,0 3.264,5.794 4.336,5.784 L 12.963,0.351 7.829,2.756 7.819,2.585 Z"
           style="fill:none;stroke:#ffffff;stroke-width:0.161;stroke-linecap:butt;stroke-linejoin:miter;stroke-miterlimit:10;stroke-dasharray:none;stroke-opacity:1"
           id="path1604" /></g><g
         id="g1606"
         transform="translate(321.6391,475.4608)"><path
           d="m 0,0 c -4.48,2.541 -10.287,5.798 -10.602,5.798 -0.284,0 0.33,2.81 0.934,5.311 L -16.639,8.803 V -7.801 h 14.05 l 0.565,3.303 z"
           style="fill:#cccccc;fill-opacity:1;fill-rule:nonzero;stroke:none"
           id="path1608" /></g><g
         id="g1610"
         transform="translate(321.6391,475.4608)"><path
           d="m 0,0 c -4.48,2.542 -10.287,5.798 -10.602,5.798 -0.284,0 0.33,2.81 0.934,5.311 L -16.639,8.803 V -7.801 h 14.05 l 0.565,3.303 z"
           style="fill:none;stroke:#ffffff;stroke-width:0.161;stroke-linecap:butt;stroke-linejoin:miter;stroke-miterlimit:10;stroke-dasharray:none;stroke-opacity:1"
           id="path1612" /></g><g
         id="g1614"
         transform="translate(316.5688,500.244)"><path
           d="m 0,0 h -11.569 v -15.98 l 6.971,2.306 7.819,2.585 0.009,0.171 0.334,5.491 z"
           style="fill:#cccccc;fill-opacity:1;fill-rule:nonzero;stroke:none"
           id="path1616" /></g><g
         id="g1618"
         transform="translate(316.5688,500.244)"><path
           d="m 0,0 h -11.569 v -15.98 l 6.971,2.306 7.819,2.585 0.009,0.171 0.334,5.491 z"
           style="fill:none;stroke:#ffffff;stroke-width:0.161;stroke-linecap:butt;stroke-linejoin:miter;stroke-miterlimit:10;stroke-dasharray:none;stroke-opacity:1"
           id="path1620" /></g><g
         id="g1622"
         transform="translate(325.975,481.246)"><path
           d="m 0,0 c -1.073,0.009 -4.335,-5.785 -4.335,-5.785 l -2.021,-4.498 -0.57,-3.302 H 11.609 V -0.1 C 7.368,-0.068 2.518,-0.023 0,0"
           style="fill:#cccccc;fill-opacity:1;fill-rule:nonzero;stroke:none"
           id="path1624" /></g><g
         id="g1626"
         transform="translate(325.975,481.2455)"><path
           d="m 0,0 c -1.073,0.009 -4.336,-5.785 -4.336,-5.785 l -2.021,-4.497 -0.568,-3.303 H 11.609 V -0.1 C 7.368,-0.067 2.518,-0.022 0,0 Z"
           style="fill:none;stroke:#ffffff;stroke-width:0.161;stroke-linecap:butt;stroke-linejoin:miter;stroke-miterlimit:10;stroke-dasharray:none;stroke-opacity:1"
           id="path1628" /></g><g
         id="g1630"
         transform="translate(320.0571,490.6464)"><path
           d="M 0,0 6.05,-10.474 H -6.046 Z"
           style="fill:#de2d26;fill-opacity:1;fill-rule:nonzero;stroke:none"
           id="path1632" /></g><g
         id="g1634"
         transform="translate(329.6699,475.9555)"><path
           d="M 0,0 1.815,-3.142 H -1.814 Z"
           style="fill:#de2d26;fill-opacity:1;fill-rule:nonzero;stroke:none"
           id="path1636" /></g><g
         id="g1638"
         transform="translate(330.8242,495.7538)"><path
           d="M 0,0 3.833,-6.637 H -3.831 Z"
           style="fill:#de2d26;fill-opacity:1;fill-rule:nonzero;stroke:none"
           id="path1640" /></g><g
         id="g1642"
         transform="translate(310.3515,475.3642)"><path
           d="M 0,0 1.815,-3.143 H -1.814 Z"
           style="fill:#de2d26;fill-opacity:1;fill-rule:nonzero;stroke:none"
           id="path1644" /></g><g
         id="g1646"
         transform="translate(312.165,498.7274)"><path
           d="M 0,0 4.6,-7.964 H -4.597 Z"
           style="fill:#de2d26;fill-opacity:1;fill-rule:nonzero;stroke:none"
           id="path1648" /></g></g></g></svg>
