<?xml version="1.0" encoding="UTF-8" standalone="no"?>
<!-- Created with Inkscape (http://www.inkscape.org/) -->

<svg
   width="10.583236mm"
   height="10.583354mm"
   viewBox="0 0 10.583236 10.583354"
   version="1.1"
   id="svg185"
   xml:space="preserve"
   xmlns="http://www.w3.org/2000/svg"
   xmlns:svg="http://www.w3.org/2000/svg"><defs
     id="defs182"><clipPath
       clipPathUnits="userSpaceOnUse"
       id="clipPath18104"><path
         d="M -174.83937,810.58112 H 1455.0806 V -448.90246 H -174.83937 Z"
         id="path18106"
         style="stroke-width:1.48174" /></clipPath></defs><g
     id="layer1"
     transform="translate(-511.21793,-19.691618)"><g
       id="g1760"
       clip-path="url(#clipPath18104)"
       transform="matrix(0.32319139,0,0,-0.32321304,412.67066,149.42513)"><g
         id="g1766"
         transform="translate(316.5688,401.3065)"><path
           d="m 0,0 3.563,-5.427 -0.334,-5.491 5.14,-2.404 1.037,-5.676 c 2.518,-0.023 7.368,-0.068 11.61,-0.104 V 0 Z"
           style="fill:#cccccc;fill-opacity:1;fill-rule:nonzero;stroke:none"
           id="path1768" /></g><g
         id="g1770"
         transform="translate(316.5688,401.3065)"><path
           d="m 0,0 3.563,-5.427 -0.334,-5.491 5.14,-2.404 1.037,-5.676 c 2.518,-0.023 7.368,-0.068 11.61,-0.104 V 0 Z"
           style="fill:none;stroke:#ffffff;stroke-width:0.161;stroke-linecap:butt;stroke-linejoin:miter;stroke-miterlimit:10;stroke-dasharray:none;stroke-opacity:1"
           id="path1772" /></g><g
         id="g1774"
         transform="translate(311.9706,387.6317)"><path
           d="m 0,0 c -0.604,-2.499 -1.219,-5.311 -0.935,-5.311 0.317,0 6.123,-3.256 10.603,-5.796 0,0 3.262,5.792 4.336,5.784 L 12.963,0.353 7.828,2.757 7.819,2.585 Z"
           style="fill:#cccccc;fill-opacity:1;fill-rule:nonzero;stroke:none"
           id="path1776" /></g><g
         id="g1778"
         transform="translate(311.9706,387.6317)"><path
           d="m 0,0 c -0.604,-2.499 -1.219,-5.311 -0.935,-5.311 0.317,0 6.123,-3.256 10.603,-5.796 0,0 3.262,5.792 4.336,5.784 L 12.963,0.353 7.828,2.757 7.819,2.585 Z"
           style="fill:none;stroke:#ffffff;stroke-width:0.161;stroke-linecap:butt;stroke-linejoin:miter;stroke-miterlimit:10;stroke-dasharray:none;stroke-opacity:1"
           id="path1780" /></g><g
         id="g1782"
         transform="translate(321.6391,376.5243)"><path
           d="m 0,0 c -4.48,2.54 -10.287,5.797 -10.603,5.797 -0.284,0 0.331,2.811 0.935,5.31 L -16.639,8.802 V -7.801 h 14.05 l 0.563,3.302 z"
           style="fill:#cccccc;fill-opacity:1;fill-rule:nonzero;stroke:none"
           id="path1784" /></g><g
         id="g1786"
         transform="translate(321.6391,376.5243)"><path
           d="m 0,0 c -4.48,2.54 -10.287,5.797 -10.603,5.797 -0.284,0 0.331,2.811 0.935,5.31 L -16.639,8.802 V -7.801 h 14.05 l 0.563,3.302 z"
           style="fill:none;stroke:#ffffff;stroke-width:0.161;stroke-linecap:butt;stroke-linejoin:miter;stroke-miterlimit:10;stroke-dasharray:none;stroke-opacity:1"
           id="path1788" /></g><g
         id="g1790"
         transform="translate(316.5688,401.3065)"><path
           d="m 0,0 h -11.569 v -15.98 l 6.971,2.305 7.819,2.585 0.008,0.172 0.334,5.491 z"
           style="fill:#cccccc;fill-opacity:1;fill-rule:nonzero;stroke:none"
           id="path1792" /></g><g
         id="g1794"
         transform="translate(316.5688,401.3065)"><path
           d="m 0,0 h -11.569 v -15.98 l 6.971,2.305 7.819,2.585 0.008,0.172 0.334,5.491 z"
           style="fill:none;stroke:#ffffff;stroke-width:0.161;stroke-linecap:butt;stroke-linejoin:miter;stroke-miterlimit:10;stroke-dasharray:none;stroke-opacity:1"
           id="path1796" /></g><g
         id="g1798"
         transform="translate(325.9745,382.3075)"><path
           d="m 0,0 c -1.073,0.01 -4.334,-5.784 -4.334,-5.784 l -2.022,-4.497 -0.569,-3.304 H 11.609 V -0.099 C 7.368,-0.066 2.518,-0.021 0,0"
           style="fill:#cccccc;fill-opacity:1;fill-rule:nonzero;stroke:none"
           id="path1800" /></g><g
         id="g1802"
         transform="translate(325.975,382.3085)"><path
           d="m 0,0 c -1.074,0.008 -4.336,-5.784 -4.336,-5.784 l -2.021,-4.499 -0.568,-3.302 H 11.609 V -0.1 C 7.368,-0.068 2.518,-0.023 0,0 Z"
           style="fill:none;stroke:#ffffff;stroke-width:0.161;stroke-linecap:butt;stroke-linejoin:miter;stroke-miterlimit:10;stroke-dasharray:none;stroke-opacity:1"
           id="path1804" /></g><g
         id="g1806"
         transform="translate(327.8159,383.3232)"><path
           d="m 0,0 c 0,-4.345 -3.52,-7.868 -7.863,-7.868 -4.345,0 -7.869,3.523 -7.869,7.868 0,4.345 3.524,7.864 7.869,7.864 C -3.52,7.864 0,4.345 0,0"
           style="fill:#fb6a4a;fill-opacity:1;fill-rule:nonzero;stroke:none"
           id="path1808" /></g><g
         id="g1810"
         transform="translate(327.8163,383.3222)"><path
           d="m 0,0 c 0,-4.344 -3.52,-7.867 -7.865,-7.867 -4.345,0 -7.867,3.523 -7.867,7.867 0,4.346 3.522,7.865 7.867,7.865 C -3.52,7.865 0,4.346 0,0 Z"
           style="fill:none;stroke:#231f20;stroke-width:0.08;stroke-linecap:butt;stroke-linejoin:miter;stroke-miterlimit:10;stroke-dasharray:none;stroke-opacity:1"
           id="path1812" /></g><g
         id="g1814"
         transform="translate(312.7011,374.746)"><path
           d="m 0,0 c 0,-0.826 -0.667,-1.498 -1.494,-1.498 -0.829,0 -1.498,0.672 -1.498,1.498 0,0.826 0.669,1.498 1.498,1.498 C -0.667,1.498 0,0.826 0,0"
           style="fill:#7acf8e;fill-opacity:1;fill-rule:nonzero;stroke:none"
           id="path1816" /></g><g
         id="g1818"
         transform="translate(312.7016,374.747)"><path
           d="m 0,0 c 0,-0.826 -0.667,-1.498 -1.493,-1.498 -0.831,0 -1.498,0.672 -1.498,1.498 0,0.825 0.667,1.498 1.498,1.498 C -0.667,1.498 0,0.825 0,0"
           style="fill:#fcae91;fill-opacity:1;fill-rule:nonzero;stroke:none"
           id="path1820" /></g><g
         id="g1822"
         transform="translate(316.1166,395.2704)"><path
           d="m 0,0 c 0,-2.738 -2.22,-4.958 -4.958,-4.958 -2.744,0 -4.964,2.22 -4.964,4.958 0,2.738 2.22,4.958 4.964,4.958 C -2.22,4.958 0,2.738 0,0"
           style="fill:#fee5d9;fill-opacity:1;fill-rule:nonzero;stroke:none"
           id="path1824" /></g><g
         id="g1826"
         transform="translate(316.1171,395.2694)"><path
           d="m 0,0 c 0,-2.738 -2.22,-4.958 -4.958,-4.958 -2.744,0 -4.964,2.22 -4.964,4.958 0,2.739 2.22,4.959 4.964,4.959 C -2.22,4.959 0,2.739 0,0 Z"
           style="fill:none;stroke:#231f20;stroke-width:0.08;stroke-linecap:butt;stroke-linejoin:miter;stroke-miterlimit:10;stroke-dasharray:none;stroke-opacity:1"
           id="path1828" /></g><g
         id="g1830"
         transform="translate(333.0087,392.3739)"><path
           d="m 0,0 c 0,-1.76 -1.425,-3.181 -3.181,-3.181 -1.759,0 -3.184,1.421 -3.184,3.181 0,1.755 1.425,3.181 3.184,3.181 C -1.425,3.181 0,1.755 0,0"
           style="fill:#de2d26;fill-opacity:1;fill-rule:nonzero;stroke:none"
           id="path1832" /></g><g
         id="g1834"
         transform="translate(333.0092,392.373)"><path
           d="m 0,0 c 0,-1.759 -1.425,-3.181 -3.181,-3.181 -1.759,0 -3.185,1.422 -3.185,3.181 0,1.756 1.426,3.181 3.185,3.181 C -1.425,3.181 0,1.756 0,0 Z"
           style="fill:none;stroke:#231f20;stroke-width:0.08;stroke-linecap:butt;stroke-linejoin:miter;stroke-miterlimit:10;stroke-dasharray:none;stroke-opacity:1"
           id="path1836" /></g><g
         id="g1838"
         transform="translate(331.3803,374.7284)"><path
           d="m 0,0 c 0,-0.88 -0.712,-1.593 -1.588,-1.593 -0.88,0 -1.593,0.713 -1.593,1.593 0,0.879 0.713,1.593 1.593,1.593 C -0.712,1.593 0,0.879 0,0"
           style="fill:#33883b;fill-opacity:1;fill-rule:nonzero;stroke:none"
           id="path1840" /></g><g
         id="g1842"
         transform="translate(331.3808,374.7284)"><path
           d="m 0,0 c 0,-0.88 -0.713,-1.593 -1.588,-1.593 -0.88,0 -1.593,0.713 -1.593,1.593 0,0.88 0.713,1.593 1.593,1.593 C -0.713,1.593 0,0.88 0,0"
           style="fill:#a50f15;fill-opacity:1;fill-rule:nonzero;stroke:none"
           id="path1844" /></g></g></g></svg>
