<?xml version="1.0" encoding="UTF-8" standalone="no"?>
<!-- Created with Inkscape (http://www.inkscape.org/) -->

<svg
   width="10.583367mm"
   height="10.583331mm"
   viewBox="0 0 10.583367 10.583331"
   version="1.1"
   id="svg185"
   xml:space="preserve"
   xmlns="http://www.w3.org/2000/svg"
   xmlns:svg="http://www.w3.org/2000/svg"><defs
     id="defs182"><clipPath
       clipPathUnits="userSpaceOnUse"
       id="clipPath17859"><path
         d="M -174.83937,810.58112 H 1455.0806 V -448.90246 H -174.83937 Z"
         id="path17861"
         style="stroke-width:1.48174" /></clipPath></defs><g
     id="layer1"
     transform="translate(-537.14713,-19.691639)"><g
       id="g1874"
       clip-path="url(#clipPath17859)"
       transform="matrix(0.32319277,0,0,-0.32320254,438.59948,133.45777)"><g
         id="g1880"
         transform="translate(316.5717,351.9159)"><path
           d="m 0,0 3.559,-5.428 -0.329,-5.491 5.133,-2.404 1.042,-5.676 c 2.518,-0.023 7.367,-0.068 11.608,-0.1 V 0 Z"
           style="fill:#cccccc;fill-opacity:1;fill-rule:nonzero;stroke:none"
           id="path1882" /></g><g
         id="g1884"
         transform="translate(316.5717,351.9159)"><path
           d="m 0,0 3.559,-5.428 -0.329,-5.491 5.133,-2.404 1.042,-5.676 c 2.518,-0.023 7.367,-0.068 11.608,-0.1 V 0 Z"
           style="fill:none;stroke:#ffffff;stroke-width:0.161;stroke-linecap:butt;stroke-linejoin:miter;stroke-miterlimit:10;stroke-dasharray:none;stroke-opacity:1"
           id="path1886" /></g><g
         id="g1888"
         transform="translate(311.9697,338.2401)"><path
           d="m 0,0 c -0.6,-2.499 -1.217,-5.31 -0.929,-5.31 0.311,0 6.121,-3.257 10.601,-5.797 0,0 3.262,5.793 4.335,5.784 L 12.965,0.353 7.832,2.762 7.818,2.585 Z"
           style="fill:#cccccc;fill-opacity:1;fill-rule:nonzero;stroke:none"
           id="path1890" /></g><g
         id="g1892"
         transform="translate(311.9697,338.2401)"><path
           d="m 0,0 c -0.6,-2.499 -1.217,-5.31 -0.929,-5.31 0.311,0 6.121,-3.257 10.601,-5.797 0,0 3.262,5.793 4.335,5.784 L 12.965,0.353 7.832,2.762 7.818,2.585 Z"
           style="fill:none;stroke:#ffffff;stroke-width:0.161;stroke-linecap:butt;stroke-linejoin:miter;stroke-miterlimit:10;stroke-dasharray:none;stroke-opacity:1"
           id="path1894" /></g><g
         id="g1896"
         transform="translate(321.6415,327.1327)"><path
           d="m 0,0 c -4.48,2.54 -10.29,5.798 -10.601,5.798 -0.288,0 0.33,2.81 0.929,5.309 l -6.97,-2.305 V -7.801 h 14.053 l 0.563,3.302 z"
           style="fill:#cccccc;fill-opacity:1;fill-rule:nonzero;stroke:none"
           id="path1898" /></g><g
         id="g1900"
         transform="translate(321.6415,327.1327)"><path
           d="m 0,0 c -4.48,2.54 -10.29,5.798 -10.601,5.798 -0.288,0 0.33,2.81 0.929,5.309 l -6.97,-2.305 V -7.801 h 14.053 l 0.563,3.302 z"
           style="fill:none;stroke:#ffffff;stroke-width:0.161;stroke-linecap:butt;stroke-linejoin:miter;stroke-miterlimit:10;stroke-dasharray:none;stroke-opacity:1"
           id="path1902" /></g><g
         id="g1904"
         transform="translate(316.5717,351.9159)"><path
           d="m 0,0 h -11.572 v -15.981 l 6.97,2.305 7.818,2.585 0.014,0.172 0.329,5.491 z"
           style="fill:#cccccc;fill-opacity:1;fill-rule:nonzero;stroke:none"
           id="path1906" /></g><g
         id="g1908"
         transform="translate(316.5717,351.9159)"><path
           d="m 0,0 h -11.572 v -15.981 l 6.97,2.305 7.818,2.585 0.014,0.172 0.329,5.491 z"
           style="fill:none;stroke:#ffffff;stroke-width:0.161;stroke-linecap:butt;stroke-linejoin:miter;stroke-miterlimit:10;stroke-dasharray:none;stroke-opacity:1"
           id="path1910" /></g><g
         id="g1912"
         transform="translate(325.9775,332.9159)"><path
           d="m 0,0 c -1.074,0.01 -4.335,-5.783 -4.335,-5.783 l -2.026,-4.498 -0.563,-3.303 h 18.53 V -0.099 C 7.367,-0.066 2.517,-0.021 0,0"
           style="fill:#cccccc;fill-opacity:1;fill-rule:nonzero;stroke:none"
           id="path1914" /></g><g
         id="g1916"
         transform="translate(325.977,332.9169)"><path
           d="m 0,0 c -1.073,0.009 -4.335,-5.784 -4.335,-5.784 l -2.026,-4.499 -0.564,-3.302 H 11.607 V -0.1 C 7.367,-0.068 2.518,-0.023 0,0 Z"
           style="fill:none;stroke:#ffffff;stroke-width:0.161;stroke-linecap:butt;stroke-linejoin:miter;stroke-miterlimit:10;stroke-dasharray:none;stroke-opacity:1"
           id="path1918" /></g><g
         id="g1920"
         transform="translate(327.8173,333.9315)"><path
           d="m 0,0 c 0,-4.344 -3.522,-7.868 -7.867,-7.868 -4.344,0 -7.863,3.524 -7.863,7.868 0,4.345 3.519,7.864 7.863,7.864 C -3.522,7.864 0,4.345 0,0"
           style="fill:#27439f;fill-opacity:1;fill-rule:nonzero;stroke:none"
           id="path1922" /></g><g
         id="g1924"
         transform="translate(327.8178,333.9325)"><path
           d="m 0,0 c 0,-4.346 -3.523,-7.869 -7.867,-7.869 -4.344,0 -7.863,3.523 -7.863,7.869 0,4.344 3.519,7.863 7.863,7.863 C -3.523,7.863 0,4.344 0,0"
           style="fill:#ccebc5;fill-opacity:1;fill-rule:nonzero;stroke:none"
           id="path1926" /></g><g
         id="g1928"
         transform="translate(327.8178,333.9325)"><path
           d="m 0,0 c 0,-4.346 -3.523,-7.869 -7.867,-7.869 -4.344,0 -7.863,3.523 -7.863,7.869 0,4.344 3.519,7.863 7.863,7.863 C -3.523,7.863 0,4.344 0,0 Z"
           style="fill:none;stroke:#231f20;stroke-width:0.08;stroke-linecap:butt;stroke-linejoin:miter;stroke-miterlimit:10;stroke-dasharray:none;stroke-opacity:1"
           id="path1930" /></g><g
         id="g1932"
         transform="translate(312.7045,325.3554)"><path
           d="m 0,0 c 0,-0.826 -0.667,-1.498 -1.497,-1.498 -0.825,0 -1.493,0.672 -1.493,1.498 0,0.825 0.668,1.497 1.493,1.497 C -0.667,1.497 0,0.825 0,0"
           style="fill:#49bc3d;fill-opacity:1;fill-rule:nonzero;stroke:none"
           id="path1934" /></g><g
         id="g1936"
         transform="translate(312.705,325.3554)"><path
           d="m 0,0 c 0,-0.826 -0.667,-1.498 -1.498,-1.498 -0.825,0 -1.493,0.672 -1.493,1.498 0,0.825 0.668,1.498 1.493,1.498 C -0.667,1.498 0,0.825 0,0"
           style="fill:#decbe4;fill-opacity:1;fill-rule:nonzero;stroke:none"
           id="path1938" /></g><g
         id="g1940"
         transform="translate(312.705,325.3554)"><path
           d="m 0,0 c 0,-0.826 -0.667,-1.498 -1.498,-1.498 -0.825,0 -1.493,0.672 -1.493,1.498 0,0.825 0.668,1.498 1.493,1.498 C -0.667,1.498 0,0.825 0,0 Z"
           style="fill:none;stroke:#231f20;stroke-width:0.08;stroke-linecap:butt;stroke-linejoin:miter;stroke-miterlimit:10;stroke-dasharray:none;stroke-opacity:1"
           id="path1942" /></g><g
         id="g1944"
         transform="translate(316.1196,345.8788)"><path
           d="m 0,0 c 0,-2.738 -2.223,-4.958 -4.961,-4.958 -2.738,0 -4.958,2.22 -4.958,4.958 0,2.738 2.22,4.959 4.958,4.959 C -2.223,4.959 0,2.738 0,0"
           style="fill:#ee273c;fill-opacity:1;fill-rule:nonzero;stroke:none"
           id="path1946" /></g><g
         id="g1948"
         transform="translate(316.1201,345.8788)"><path
           d="m 0,0 c 0,-2.739 -2.224,-4.958 -4.962,-4.958 -2.739,0 -4.958,2.219 -4.958,4.958 0,2.739 2.219,4.958 4.958,4.958 C -2.224,4.958 0,2.739 0,0"
           style="fill:#fbb4ae;fill-opacity:1;fill-rule:nonzero;stroke:none"
           id="path1950" /></g><g
         id="g1952"
         transform="translate(316.1201,345.8788)"><path
           d="m 0,0 c 0,-2.739 -2.224,-4.958 -4.962,-4.958 -2.739,0 -4.958,2.219 -4.958,4.958 0,2.739 2.219,4.958 4.958,4.958 C -2.224,4.958 0,2.739 0,0 Z"
           style="fill:none;stroke:#231f20;stroke-width:0.08;stroke-linecap:butt;stroke-linejoin:miter;stroke-miterlimit:10;stroke-dasharray:none;stroke-opacity:1"
           id="path1954" /></g><g
         id="g1956"
         transform="translate(333.0063,342.9823)"><path
           d="m 0,0 c 0,-1.759 -1.422,-3.181 -3.181,-3.181 -1.755,0 -3.18,1.422 -3.18,3.181 0,1.756 1.425,3.181 3.18,3.181 C -1.422,3.181 0,1.756 0,0"
           style="fill:#cde41c;fill-opacity:1;fill-rule:nonzero;stroke:none"
           id="path1958" /></g><g
         id="g1960"
         transform="translate(333.0053,342.9833)"><path
           d="m 0,0 c 0,-1.761 -1.42,-3.182 -3.181,-3.182 -1.754,0 -3.18,1.421 -3.18,3.182 0,1.754 1.426,3.181 3.18,3.181 C -1.42,3.181 0,1.754 0,0"
           style="fill:#b3cde3;fill-opacity:1;fill-rule:nonzero;stroke:none"
           id="path1962" /></g><g
         id="g1964"
         transform="translate(333.0053,342.9833)"><path
           d="m 0,0 c 0,-1.761 -1.42,-3.182 -3.181,-3.182 -1.754,0 -3.18,1.421 -3.18,3.182 0,1.754 1.426,3.181 3.18,3.181 C -1.42,3.181 0,1.754 0,0 Z"
           style="fill:none;stroke:#231f20;stroke-width:0.08;stroke-linecap:butt;stroke-linejoin:miter;stroke-miterlimit:10;stroke-dasharray:none;stroke-opacity:1"
           id="path1966" /></g><g
         id="g1968"
         transform="translate(331.3813,325.3368)"><path
           d="m 0,0 c 0,-0.88 -0.712,-1.588 -1.588,-1.588 -0.879,0 -1.593,0.708 -1.593,1.588 0,0.88 0.714,1.593 1.593,1.593 C -0.712,1.593 0,0.88 0,0"
           style="fill:#8a41a5;fill-opacity:1;fill-rule:nonzero;stroke:none"
           id="path1970" /></g><g
         id="g1972"
         transform="translate(331.3813,325.3368)"><path
           d="m 0,0 c 0,-0.879 -0.712,-1.589 -1.588,-1.589 -0.88,0 -1.592,0.71 -1.592,1.589 0,0.88 0.712,1.593 1.592,1.593 C -0.712,1.593 0,0.88 0,0"
           style="fill:#fed9a6;fill-opacity:1;fill-rule:nonzero;stroke:none"
           id="path1974" /></g><g
         id="g1976"
         transform="translate(331.3813,325.3368)"><path
           d="m 0,0 c 0,-0.879 -0.712,-1.589 -1.588,-1.589 -0.88,0 -1.592,0.71 -1.592,1.589 0,0.88 0.712,1.593 1.592,1.593 C -0.712,1.593 0,0.88 0,0 Z"
           style="fill:none;stroke:#231f20;stroke-width:0.08;stroke-linecap:butt;stroke-linejoin:miter;stroke-miterlimit:10;stroke-dasharray:none;stroke-opacity:1"
           id="path1978" /></g></g></g></svg>
