<?xml version="1.0" encoding="UTF-8" standalone="no"?>
<!-- Created with Inkscape (http://www.inkscape.org/) -->

<svg
   width="10.583334mm"
   height="10.583333mm"
   viewBox="0 0 10.583334 10.583333"
   version="1.1"
   id="svg185"
   xml:space="preserve"
   xmlns="http://www.w3.org/2000/svg"
   xmlns:svg="http://www.w3.org/2000/svg"><defs
     id="defs182"><clipPath
       clipPathUnits="userSpaceOnUse"
       id="clipPath2192"><path
         d="M 0,850 H 1100 V 0 H 0 Z"
         id="path2190" /></clipPath></defs><g
     id="layer1"
     transform="translate(-578.92574,-19.691637)"><g
       id="g2188"
       clip-path="url(#clipPath2192)"
       transform="matrix(0.32480154,0,0,-0.32479157,479.86123,101.79992)"><path
         d="m 326.661,252.803 h -10.879 v -10.988 h 10.879 z"
         style="fill:#fee5d9;fill-opacity:1;fill-rule:nonzero;stroke:none"
         id="path2194" /><path
         d="M 315.782,241.814 H 305 v -10.859 h 10.782 z"
         style="fill:#a50f15;fill-opacity:1;fill-rule:nonzero;stroke:none"
         id="path2196" /><path
         d="M 315.782,252.803 H 305 v -10.988 h 10.782 z"
         style="fill:#fcae91;fill-opacity:1;fill-rule:nonzero;stroke:none"
         id="path2198" /><path
         d="m 337.584,252.803 h -10.923 v -10.988 h 10.923 z"
         style="fill:#de2d26;fill-opacity:1;fill-rule:nonzero;stroke:none"
         id="path2200" /><path
         d="m 315.782,230.955 h 10.879 v 10.859 h -10.879 z"
         style="fill:#fb6a4a;fill-opacity:1;fill-rule:nonzero;stroke:none"
         id="path2202" /><path
         d="m 326.661,220.218 h 10.923 v 10.737 h -10.923 z"
         style="fill:#a50f15;fill-opacity:1;fill-rule:nonzero;stroke:none"
         id="path2204" /><path
         d="m 326.661,230.955 h 10.923 v 10.859 h -10.923 z"
         style="fill:#fee5d9;fill-opacity:1;fill-rule:nonzero;stroke:none"
         id="path2206" /><path
         d="m 305,220.218 h 10.782 v 10.737 H 305 Z"
         style="fill:#de2d26;fill-opacity:1;fill-rule:nonzero;stroke:none"
         id="path2208" /><path
         d="m 315.782,220.218 h 10.879 v 10.737 h -10.879 z"
         style="fill:#fee5d9;fill-opacity:1;fill-rule:nonzero;stroke:none"
         id="path2210" /></g></g></svg>
