<?xml version="1.0" encoding="UTF-8" standalone="no"?>
<!-- Created with Inkscape (http://www.inkscape.org/) -->

<svg
   width="10.583334mm"
   height="10.583331mm"
   viewBox="0 0 10.583334 10.583331"
   version="1.1"
   id="svg185"
   xml:space="preserve"
   xmlns="http://www.w3.org/2000/svg"
   xmlns:svg="http://www.w3.org/2000/svg"><defs
     id="defs182"><clipPath
       clipPathUnits="userSpaceOnUse"
       id="clipPath18286"><path
         d="M -174.83937,810.58112 H 1455.0806 V -448.90246 H -174.83937 Z"
         id="path18288"
         style="stroke-width:1.48174" /></clipPath></defs><g
     id="layer1"
     transform="translate(-559.37208,-19.691639)"><g
       id="g2006"
       clip-path="url(#clipPath18286)"
       transform="matrix(0.32319474,0,0,-0.32320155,460.82376,118.78239)"><g
         id="g2012"
         transform="translate(316.5688,306.5107)"><path
           d="m 0,0 3.563,-5.428 -0.334,-5.49 5.14,-2.405 1.037,-5.676 c 2.518,-0.022 7.368,-0.067 11.61,-0.104 V 0 Z"
           style="fill:#cccccc;fill-opacity:1;fill-rule:nonzero;stroke:none"
           id="path2014" /></g><g
         id="g2016"
         transform="translate(316.5688,306.5107)"><path
           d="m 0,0 3.563,-5.428 -0.334,-5.49 5.14,-2.405 1.037,-5.676 c 2.518,-0.022 7.368,-0.067 11.61,-0.104 V 0 Z"
           style="fill:none;stroke:#ffffff;stroke-width:0.161;stroke-linecap:butt;stroke-linejoin:miter;stroke-miterlimit:10;stroke-dasharray:none;stroke-opacity:1"
           id="path2018" /></g><g
         id="g2020"
         transform="translate(311.9706,292.8349)"><path
           d="m 0,0 c -0.604,-2.499 -1.219,-5.311 -0.935,-5.311 0.317,0 6.123,-3.256 10.603,-5.796 0,0 3.262,5.793 4.336,5.784 L 12.963,0.353 7.828,2.758 7.819,2.585 Z"
           style="fill:#cccccc;fill-opacity:1;fill-rule:nonzero;stroke:none"
           id="path2022" /></g><g
         id="g2024"
         transform="translate(311.9706,292.8349)"><path
           d="m 0,0 c -0.604,-2.499 -1.219,-5.311 -0.935,-5.311 0.317,0 6.123,-3.256 10.603,-5.796 0,0 3.262,5.793 4.336,5.784 L 12.963,0.353 7.828,2.758 7.819,2.585 Z"
           style="fill:none;stroke:#ffffff;stroke-width:0.161;stroke-linecap:butt;stroke-linejoin:miter;stroke-miterlimit:10;stroke-dasharray:none;stroke-opacity:1"
           id="path2026" /></g><g
         id="g2028"
         transform="translate(321.6391,281.7274)"><path
           d="m 0,0 c -4.48,2.54 -10.287,5.797 -10.603,5.797 -0.284,0 0.331,2.811 0.935,5.31 L -16.639,8.803 V -7.801 h 14.05 l 0.563,3.303 z"
           style="fill:#cccccc;fill-opacity:1;fill-rule:nonzero;stroke:none"
           id="path2030" /></g><g
         id="g2032"
         transform="translate(321.6391,281.7274)"><path
           d="m 0,0 c -4.48,2.54 -10.287,5.797 -10.603,5.797 -0.284,0 0.331,2.811 0.935,5.31 L -16.639,8.803 V -7.801 h 14.05 l 0.563,3.303 z"
           style="fill:none;stroke:#ffffff;stroke-width:0.161;stroke-linecap:butt;stroke-linejoin:miter;stroke-miterlimit:10;stroke-dasharray:none;stroke-opacity:1"
           id="path2034" /></g><g
         id="g2036"
         transform="translate(316.5688,306.5107)"><path
           d="m 0,0 h -11.569 v -15.98 l 6.971,2.304 7.819,2.585 0.008,0.173 0.334,5.49 z"
           style="fill:#cccccc;fill-opacity:1;fill-rule:nonzero;stroke:none"
           id="path2038" /></g><g
         id="g2040"
         transform="translate(316.5688,306.5107)"><path
           d="m 0,0 h -11.569 v -15.98 l 6.971,2.304 7.819,2.585 0.008,0.173 0.334,5.49 z"
           style="fill:none;stroke:#ffffff;stroke-width:0.161;stroke-linecap:butt;stroke-linejoin:miter;stroke-miterlimit:10;stroke-dasharray:none;stroke-opacity:1"
           id="path2042" /></g><g
         id="g2044"
         transform="translate(325.9745,287.5116)"><path
           d="m 0,0 c -1.073,0.009 -4.334,-5.784 -4.334,-5.784 l -2.022,-4.498 -0.569,-3.303 H 11.609 V -0.1 C 7.368,-0.067 2.518,-0.022 0,0"
           style="fill:#cccccc;fill-opacity:1;fill-rule:nonzero;stroke:none"
           id="path2046" /></g><g
         id="g2048"
         transform="translate(325.975,287.5116)"><path
           d="m 0,0 c -1.074,0.009 -4.336,-5.784 -4.336,-5.784 l -2.021,-4.498 -0.568,-3.303 H 11.609 V -0.099 C 7.368,-0.067 2.518,-0.022 0,0 Z"
           style="fill:none;stroke:#ffffff;stroke-width:0.161;stroke-linecap:butt;stroke-linejoin:miter;stroke-miterlimit:10;stroke-dasharray:none;stroke-opacity:1"
           id="path2050" /></g><g
         id="g2052"
         transform="translate(315.1537,289.3661)"><path
           d="M 0,0 C 0,2.061 1.682,3.742 3.742,3.742 5.803,3.742 7.484,2.061 7.484,0 7.484,-2.06 5.803,-3.742 3.742,-3.742 1.682,-3.742 0,-2.06 0,0"
           style="fill:#fb6a4a;fill-opacity:1;fill-rule:nonzero;stroke:none"
           id="path2054" /></g><path
         d="m 326.023,294.875 h 7.484 v 7.484 h -7.484 z"
         style="fill:#de2d26;fill-opacity:1;fill-rule:nonzero;stroke:none"
         id="path2056" /><g
         id="g2058"
         transform="translate(311.3437,297.0985)"><path
           d="M 0,0 3.749,3.735 0,7.484 -3.736,3.735 Z"
           style="fill:#fee5d9;fill-opacity:1;fill-rule:nonzero;stroke:none"
           id="path2060" /></g><g
         id="g2062"
         transform="translate(330.3969,275.4814)"><path
           d="M 0,0 3.749,3.735 0,7.484 -3.736,3.735 Z"
           style="fill:#a50f15;fill-opacity:1;fill-rule:nonzero;stroke:none"
           id="path2064" /></g><path
         d="m 307.765,276.976 h 7.485 v 7.484 h -7.485 z"
         style="fill:#fcae91;fill-opacity:1;fill-rule:nonzero;stroke:none"
         id="path2066" /></g></g></svg>
