<?xml version="1.0" encoding="UTF-8" standalone="no"?>
<!-- Created with Inkscape (http://www.inkscape.org/) -->

<svg
   width="10.583334mm"
   height="10.583333mm"
   viewBox="0 0 10.583334 10.583333"
   version="1.1"
   id="svg185"
   xml:space="preserve"
   xmlns="http://www.w3.org/2000/svg"
   xmlns:svg="http://www.w3.org/2000/svg"><defs
     id="defs182"><clipPath
       clipPathUnits="userSpaceOnUse"
       id="clipPath17803"><path
         d="M -174.83937,810.58112 H 1455.0806 V -448.90246 H -174.83937 Z"
         id="path17805"
         style="stroke-width:1.48174" /></clipPath></defs><g
     id="layer1"
     transform="translate(-357.46964,-19.691637)"><g
       id="g2132"
       clip-path="url(#clipPath17803)"
       transform="matrix(0.32479157,0,0,-0.32479456,258.40828,214.2567)"><g
         id="g2138"
         transform="translate(316.5707,599.0404)"><path
           d="M 0,0 3.561,-5.429 3.229,-10.917 8.365,-13.324 9.407,-19 c 2.519,-0.023 7.364,-0.068 11.607,-0.104 V 0 Z"
           style="fill:#b3cde3;fill-opacity:1;fill-rule:nonzero;stroke:none"
           id="path2140" /></g><g
         id="g2142"
         transform="translate(311.9726,585.3622)"><path
           d="m 0,0 c -0.605,-2.497 -1.222,-5.308 -0.935,-5.308 0.315,0 6.122,-3.256 10.602,-5.797 0,0 3.265,5.793 4.338,5.783 L 12.963,0.354 7.827,2.761 7.818,2.586 Z"
           style="fill:#ccebc5;fill-opacity:1;fill-rule:nonzero;stroke:none"
           id="path2144" /></g><g
         id="g2146"
         transform="translate(321.6401,574.2567)"><path
           d="m 0,0 c -4.481,2.542 -10.287,5.797 -10.602,5.797 -0.287,0 0.329,2.811 0.935,5.308 L -16.64,8.801 V -7.801 h 14.049 l 0.57,3.306 z"
           style="fill:#decbe4;fill-opacity:1;fill-rule:nonzero;stroke:none"
           id="path2148" /></g><g
         id="g2150"
         transform="translate(316.5707,599.0404)"><path
           d="m 0,0 h -11.571 v -15.982 l 6.973,2.304 7.818,2.586 0.009,0.175 0.332,5.488 z"
           style="fill:#fbb4ae;fill-opacity:1;fill-rule:nonzero;stroke:none"
           id="path2152" /></g><g
         id="g2154"
         transform="translate(325.978,580.0404)"><path
           d="m 0,0 c -1.074,0.009 -4.338,-5.784 -4.338,-5.784 l -2.021,-4.495 -0.57,-3.305 H 11.606 V -0.099 C 7.364,-0.068 2.519,-0.023 0,0"
           style="fill:#fed9a6;fill-opacity:1;fill-rule:nonzero;stroke:none"
           id="path2156" /></g></g></g></svg>
