<?xml version="1.0" encoding="UTF-8"?>
<svg xmlns="http://www.w3.org/2000/svg" xmlns:xlink="http://www.w3.org/1999/xlink" width="72pt" height="72pt" viewBox="0 0 72 72" version="1.1">
<g id="surface297">
<path style="fill:none;stroke-width:1.5;stroke-linecap:round;stroke-linejoin:round;stroke:rgb(20%,20%,20%);stroke-opacity:1;stroke-miterlimit:10;" d="M 12.921875 31.171875 L 11.085938 30.054688 L 7.082031 32.34375 L 2.703125 32.632812 L 3.417969 39.019531 L 7.679688 46.863281 L 10.894531 47.515625 L 15.886719 53.910156 L 18.429688 49.054688 "/>
<path style="fill:none;stroke-width:1.5;stroke-linecap:round;stroke-linejoin:round;stroke:rgb(20%,20%,20%);stroke-opacity:1;stroke-miterlimit:10;" d="M 18.429688 49.054688 L 15.886719 53.910156 L 21.460938 60.277344 L 25.230469 58.933594 L 27.535156 54.980469 L 30.28125 54.757812 L 36.476562 47.644531 L 40.816406 49.648438 "/>
<path style="fill:none;stroke-width:1.5;stroke-linecap:round;stroke-linejoin:round;stroke:rgb(20%,20%,20%);stroke-opacity:1;stroke-miterlimit:10;" d="M 40.816406 49.648438 L 36.476562 47.644531 L 36.175781 43.132812 L 41.613281 38.46875 L 40.828125 33.558594 L 40.140625 33.828125 "/>
<path style="fill:none;stroke-width:1.5;stroke-linecap:round;stroke-linejoin:round;stroke:rgb(20%,20%,20%);stroke-opacity:1;stroke-miterlimit:10;" d="M 40.140625 33.828125 L 40.828125 33.558594 L 51.3125 26.050781 L 52.675781 21.238281 L 49.550781 17.769531 L 45.734375 15.921875 L 45.25 22.613281 L 41.285156 24.039062 "/>
<path style="fill:none;stroke-width:1.5;stroke-linecap:round;stroke-linejoin:round;stroke:rgb(20%,20%,20%);stroke-opacity:1;stroke-miterlimit:10;" d="M 41.285156 24.039062 L 45.25 22.613281 L 45.734375 15.921875 L 44.515625 14.347656 L 38.152344 14.609375 L 34.257812 11.355469 L 31.296875 12.058594 L 28.804688 19.1875 "/>
<path style="fill:none;stroke-width:1.5;stroke-linecap:round;stroke-linejoin:round;stroke:rgb(20%,20%,20%);stroke-opacity:1;stroke-miterlimit:10;" d="M 28.804688 19.1875 L 31.296875 12.058594 L 27.390625 11.808594 L 25.003906 13.996094 L 20.675781 13.394531 L 20.445312 16.574219 "/>
</g>
</svg>
