<?xml version="1.0" encoding="UTF-8"?>
<svg xmlns="http://www.w3.org/2000/svg" xmlns:xlink="http://www.w3.org/1999/xlink" width="72pt" height="72pt" viewBox="0 0 72 72" version="1.1">
<g id="surface322">
<path style="fill-rule:nonzero;fill:rgb(85.882353%,61.568627%,52.156863%);fill-opacity:1;stroke-width:0.525;stroke-linecap:round;stroke-linejoin:round;stroke:rgb(20%,20%,20%);stroke-opacity:1;stroke-miterlimit:10;" d="M 5.367188 33.335938 C 5.367188 36.933594 -0.0351562 36.933594 -0.0351562 33.335938 C -0.0351562 29.734375 5.367188 29.734375 5.367188 33.335938 "/>
<path style="fill-rule:nonzero;fill:rgb(85.882353%,61.568627%,52.156863%);fill-opacity:1;stroke-width:0.525;stroke-linecap:round;stroke-linejoin:round;stroke:rgb(20%,20%,20%);stroke-opacity:1;stroke-miterlimit:10;" d="M 16.585938 15.355469 C 16.585938 18.953125 11.1875 18.953125 11.1875 15.355469 C 11.1875 11.753906 16.585938 11.753906 16.585938 15.355469 "/>
<path style="fill-rule:nonzero;fill:rgb(85.882353%,61.568627%,52.156863%);fill-opacity:1;stroke-width:0.525;stroke-linecap:round;stroke-linejoin:round;stroke:rgb(20%,20%,20%);stroke-opacity:1;stroke-miterlimit:10;" d="M 30.78125 13.941406 C 30.78125 17.542969 25.382812 17.542969 25.382812 13.941406 C 25.382812 10.339844 30.78125 10.339844 30.78125 13.941406 "/>
<path style="fill-rule:nonzero;fill:rgb(85.882353%,61.568627%,52.156863%);fill-opacity:1;stroke-width:0.525;stroke-linecap:round;stroke-linejoin:round;stroke:rgb(20%,20%,20%);stroke-opacity:1;stroke-miterlimit:10;" d="M 47.347656 20.035156 C 47.347656 23.632812 41.949219 23.632812 41.949219 20.035156 C 41.949219 16.433594 47.347656 16.433594 47.347656 20.035156 "/>
<path style="fill-rule:nonzero;fill:rgb(85.882353%,61.568627%,52.156863%);fill-opacity:1;stroke-width:0.525;stroke-linecap:round;stroke-linejoin:round;stroke:rgb(20%,20%,20%);stroke-opacity:1;stroke-miterlimit:10;" d="M 44.476562 35.210938 C 44.476562 38.8125 39.078125 38.8125 39.078125 35.210938 C 39.078125 31.609375 44.476562 31.609375 44.476562 35.210938 "/>
<path style="fill-rule:nonzero;fill:rgb(85.882353%,61.568627%,52.156863%);fill-opacity:1;stroke-width:0.525;stroke-linecap:round;stroke-linejoin:round;stroke:rgb(20%,20%,20%);stroke-opacity:1;stroke-miterlimit:10;" d="M 72.035156 43.832031 C 72.035156 47.433594 66.632812 47.433594 66.632812 43.832031 C 66.632812 40.234375 72.035156 40.234375 72.035156 43.832031 "/>
<path style="fill-rule:nonzero;fill:rgb(29.803922%,72.54902%,80%);fill-opacity:1;stroke-width:0.525;stroke-linecap:round;stroke-linejoin:round;stroke:rgb(20%,20%,20%);stroke-opacity:1;stroke-miterlimit:10;" d="M 19.566406 57 C 19.566406 60.597656 14.167969 60.597656 14.167969 57 C 14.167969 53.398438 19.566406 53.398438 19.566406 57 "/>
<path style="fill-rule:nonzero;fill:rgb(85.882353%,61.568627%,52.156863%);fill-opacity:1;stroke-width:0.525;stroke-linecap:round;stroke-linejoin:round;stroke:rgb(20%,20%,20%);stroke-opacity:1;stroke-miterlimit:10;" d="M 46.628906 58.058594 C 46.628906 61.660156 41.230469 61.660156 41.230469 58.058594 C 41.230469 54.457031 46.628906 54.457031 46.628906 58.058594 "/>
</g>
</svg>
