<?xml version="1.0" encoding="UTF-8"?>
<svg xmlns="http://www.w3.org/2000/svg" xmlns:xlink="http://www.w3.org/1999/xlink" width="72pt" height="72pt" viewBox="0 0 72 72" version="1.1">
<g id="surface362">
<path style="fill:none;stroke-width:1.5;stroke-linecap:round;stroke-linejoin:round;stroke:rgb(87.843137%,94.901961%,90.196078%);stroke-opacity:1;stroke-miterlimit:10;" d="M 16.296875 29.800781 L 13.851562 28.3125 L 8.503906 31.363281 L 2.667969 31.75 L 3.617188 40.269531 L 9.304688 50.734375 L 13.59375 51.609375 L 20.25 60.136719 L 23.648438 53.660156 "/>
<path style="fill:none;stroke-width:1.5;stroke-linecap:round;stroke-linejoin:round;stroke:rgb(54.509804%,75.686275%,68.627451%);stroke-opacity:1;stroke-miterlimit:10;" d="M 23.648438 53.660156 L 20.25 60.136719 L 27.691406 68.632812 L 32.71875 66.839844 L 35.792969 61.566406 L 39.460938 61.269531 L 47.722656 51.777344 L 53.515625 54.449219 "/>
<path style="fill:none;stroke-width:1.5;stroke-linecap:round;stroke-linejoin:round;stroke:rgb(0%,36.470588%,40.392157%);stroke-opacity:1;stroke-miterlimit:10;" d="M 53.515625 54.449219 L 47.722656 51.777344 L 47.320312 45.757812 L 54.574219 39.539062 L 53.53125 32.984375 L 52.613281 33.34375 "/>
<path style="fill:none;stroke-width:1.5;stroke-linecap:round;stroke-linejoin:round;stroke:rgb(22.352941%,55.686275%,53.333333%);stroke-opacity:1;stroke-miterlimit:10;" d="M 52.613281 33.34375 L 53.53125 32.984375 L 67.515625 22.972656 L 69.332031 16.546875 L 65.164062 11.921875 L 60.078125 9.453125 L 59.425781 18.382812 L 54.140625 20.285156 "/>
<path style="fill:none;stroke-width:1.5;stroke-linecap:round;stroke-linejoin:round;stroke:rgb(87.843137%,94.901961%,90.196078%);stroke-opacity:1;stroke-miterlimit:10;" d="M 54.140625 20.285156 L 59.425781 18.382812 L 60.078125 9.453125 L 58.449219 7.355469 L 49.960938 7.703125 L 44.765625 3.367188 L 40.8125 4.300781 L 37.488281 13.8125 "/>
<path style="fill:none;stroke-width:1.5;stroke-linecap:round;stroke-linejoin:round;stroke:rgb(0%,36.470588%,40.392157%);stroke-opacity:1;stroke-miterlimit:10;" d="M 37.488281 13.8125 L 40.8125 4.300781 L 35.605469 3.96875 L 32.414062 6.886719 L 26.640625 6.082031 L 26.332031 10.324219 "/>
</g>
</svg>
